[Header]
FileType HTR
DataType HTRS
FileVersion 1
NumSegments 64
NumFrames 4
DataFrameRate 24
EulerRotationOrder ZYX
CalibrationUnits mm
RotationUnits Degrees
GlobalAxisofGravity Y
BoneLengthAxis Y
ScaleFactor 1.0
[SegmentNames&Hierarchy]
Hips	GLOBAL
Spine	Hips
Spine1	Spine
Spine2	Spine1
Neck	Spine2
Head	Neck
LeftEye	Head
RightEye	Head
LeftShoulder	Spine2
LeftArm	LeftShoulder
LeftForeArm	LeftArm
LeftHand	LeftForeArm
LeftHandThumb1	LeftHand
LeftHandThumb2	LeftHandThumb1
LeftHandThumb3	LeftHandThumb2
LeftHandThumb4	LeftHandThumb3
LeftHandIndex1	LeftHand
LeftHandIndex2	LeftHandIndex1
LeftHandIndex3	LeftHandIndex2
LeftHandIndex4	LeftHandIndex3
LeftHandMiddle1	LeftHand
LeftHandMiddle2	LeftHandMiddle1
LeftHandMiddle3	LeftHandMiddle2
LeftHandMiddle4	LeftHandMiddle3
LeftHandRing1	LeftHand
LeftHandRing2	LeftHandRing1
LeftHandRing3	LeftHandRing2
LeftHandRing4	LeftHandRing3
LeftHandPinky1	LeftHand
LeftHandPinky2	LeftHandPinky1
LeftHandPinky3	LeftHandPinky2
LeftHandPinky4	LeftHandPinky3
RightShoulder	Spine2
RightArm	RightShoulder
RightForeArm	RightArm
RightHand	RightForeArm
RightHandPinky1	RightHand
RightHandPinky2	RightHandPinky1
RightHandPinky3	RightHandPinky2
RightHandPinky4	RightHandPinky3
RightHandRing1	RightHand
RightHandRing2	RightHandRing1
RightHandRing3	RightHandRing2
RightHandRing4	RightHandRing3
RightHandMiddle1	RightHand
RightHandMiddle2	RightHandMiddle1
RightHandMiddle3	RightHandMiddle2
RightHandMiddle4	RightHandMiddle3
RightHandIndex1	RightHand
RightHandIndex2	RightHandIndex1
RightHandIndex3	RightHandIndex2
RightHandIndex4	RightHandIndex3
RightHandThumb1	RightHand
RightHandThumb2	RightHandThumb1
RightHandThumb3	RightHandThumb2
RightHandThumb4	RightHandThumb3
LeftUpLeg	Hips
LeftLeg	LeftUpLeg
LeftFoot	LeftLeg
LeftToeBase	LeftFoot
RightUpLeg	Hips
RightLeg	RightUpLeg
RightFoot	RightLeg
RightToeBase	RightFoot
[BasePosition]
Hips	0	0	0	0	0	0	1
Spine	0	0	0	0	0	0	1
Spine1	0	0	0	0	0	0	1
Spine2	0	0	0	0	0	0	1
Neck	0	0	0	0	0	0	1
Head	0	0	0	0	0	0	1
LeftEye	0	0	0	0	0	0	1
RightEye	0	0	0	0	0	0	1
LeftShoulder	0	0	0	0	0	0	1
LeftArm	0	0	0	0	0	0	1
LeftForeArm	0	0	0	0	0	0	1
LeftHand	0	0	0	0	0	0	1
LeftHandThumb1	0	0	0	0	0	0	1
LeftHandThumb2	0	0	0	0	0	0	1
LeftHandThumb3	0	0	0	0	0	0	1
LeftHandThumb4	0	0	0	0	0	0	1
LeftHandIndex1	0	0	0	0	0	0	1
LeftHandIndex2	0	0	0	0	0	0	1
LeftHandIndex3	0	0	0	0	0	0	1
LeftHandIndex4	0	0	0	0	0	0	1
LeftHandMiddle1	0	0	0	0	0	0	1
LeftHandMiddle2	0	0	0	0	0	0	1
LeftHandMiddle3	0	0	0	0	0	0	1
LeftHandMiddle4	0	0	0	0	0	0	1
LeftHandRing1	0	0	0	0	0	0	1
LeftHandRing2	0	0	0	0	0	0	1
LeftHandRing3	0	0	0	0	0	0	1
LeftHandRing4	0	0	0	0	0	0	1
LeftHandPinky1	0	0	0	0	0	0	1
LeftHandPinky2	0	0	0	0	0	0	1
LeftHandPinky3	0	0	0	0	0	0	1
LeftHandPinky4	0	0	0	0	0	0	1
RightShoulder	0	0	0	0	0	0	1
RightArm	0	0	0	0	0	0	1
RightForeArm	0	0	0	0	0	0	1
RightHand	0	0	0	0	0	0	1
RightHandPinky1	0	0	0	0	0	0	1
RightHandPinky2	0	0	0	0	0	0	1
RightHandPinky3	0	0	0	0	0	0	1
RightHandPinky4	0	0	0	0	0	0	1
RightHandRing1	0	0	0	0	0	0	1
RightHandRing2	0	0	0	0	0	0	1
RightHandRing3	0	0	0	0	0	0	1
RightHandRing4	0	0	0	0	0	0	1
RightHandMiddle1	0	0	0	0	0	0	1
RightHandMiddle2	0	0	0	0	0	0	1
RightHandMiddle3	0	0	0	0	0	0	1
RightHandMiddle4	0	0	0	0	0	0	1
RightHandIndex1	0	0	0	0	0	0	1
RightHandIndex2	0	0	0	0	0	0	1
RightHandIndex3	0	0	0	0	0	0	1
RightHandIndex4	0	0	0	0	0	0	1
RightHandThumb1	0	0	0	0	0	0	1
RightHandThumb2	0	0	0	0	0	0	1
RightHandThumb3	0	0	0	0	0	0	1
RightHandThumb4	0	0	0	0	0	0	1
LeftUpLeg	0	0	0	0	0	0	1
LeftLeg	0	0	0	0	0	0	1
LeftFoot	0	0	0	0	0	0	1
LeftToeBase	0	0	0	0	0	0	1
RightUpLeg	0	0	0	0	0	0	1
RightLeg	0	0	0	0	0	0	1
RightFoot	0	0	0	0	0	0	1
RightToeBase	0	0	0	0	0	0	1
[Hips]
14	1.525355458	598.3387451	303.1555786	23.96352959	1.122554779	-0.5027574301	1.0
15	1.758046865	579.8074341	315.6080627	27.84566879	1.229131818	-0.6625483036	1.0
16	1.878779888	567.5090332	329.3347778	31.6457901	1.310497761	-0.7093754411	1.0
17	1.982849836	561.4500732	346.9828796	35.21826553	1.412908673	-0.6962221861	1.0
[Spine]
14	0	101.8159943	1.315000057	-1.140087366	-0.8215247393	0.9154109359	1.0
15	0	101.8159943	1.315000057	1.405530095	-0.7772138715	1.160016298	1.0
16	0	101.8159943	1.315000057	3.969227791	-0.7432989478	1.291537881	1.0
17	0	101.8159943	1.315000057	6.396733761	-0.752613306	1.383675337	1.0
[Spine1]
14	0	100.8349991	-10.00800037	-14.8582449	-2.392050192e-05	6.301783287e-05	1.0
15	0	100.8349991	-10.00800037	-12.46292877	-2.658537414e-05	6.194047455e-05	1.0
16	0	100.8349991	-10.00800037	-10.05262184	-2.921807572e-05	6.074266275e-05	1.0
17	0	100.8349991	-10.00800037	-7.760270119	-3.167214163e-05	5.949979459e-05	1.0
[Spine2]
14	0	91	-13.73399925	-10.62314224	8.630131987e-08	3.046391157e-07	1.0
15	0	91	-13.73399925	-6.773611069	6.35595967e-08	3.101635002e-07	1.0
16	0	91	-13.73399925	-3.245569706	4.241784524e-08	3.137417934e-07	1.0
17	0	91	-13.73399925	-0.3240504265	2.477887406e-08	3.156095829e-07	1.0
[Neck]
14	0	166.7169952	-25.16200066	-14.35851669	3.944592493e-07	2.585021832e-07	1.0
15	0	166.7169952	-25.16200066	-15.35955906	3.993712028e-07	2.508789692e-07	1.0
16	0	166.7169952	-25.16200066	-16.1933651	4.033556991e-07	2.444680831e-07	1.0
17	0	166.7169952	-25.16200066	-16.82712936	4.06327274e-07	2.395477452e-07	1.0
[Head]
14	0	96.17900085	16.84999847	-22.26337051	-0.2418060601	-0.1389507502	1.0
15	0	96.17900085	16.84999847	-31.40846443	-0.2445660383	-0.1216658726	1.0
16	0	96.17900085	16.84999847	-37.94102097	-0.2431311756	-0.1105941609	1.0
17	0	96.17900085	16.84999847	-40.9716835	-0.2381203175	-0.109153837	1.0
[LeftEye]
14	30.6760006	64.09500122	92.83599854	0	0	0	1.0
15	30.6760006	64.09500122	92.83599854	0	0	0	1.0
16	30.6760006	64.09500122	92.83599854	0	0	0	1.0
17	30.6760006	64.09500122	92.83599854	0	0	0	1.0
[RightEye]
14	-30.6760006	64.09500122	92.83499908	0	0	0	1.0
15	-30.6760006	64.09500122	92.83499908	0	0	0	1.0
16	-30.6760006	64.09500122	92.83499908	0	0	0	1.0
17	-30.6760006	64.09500122	92.83499908	0	0	0	1.0
[LeftShoulder]
14	45.70400238	109.4599991	-26.28000069	9.879570007	4.197600365	37.58443832	1.0
15	45.70400238	109.4599991	-26.28000069	6.910091877	5.691186428	26.10796165	1.0
16	45.70400238	109.4599991	-26.28000069	3.811214685	5.991327286	14.99633789	1.0
17	45.70400238	109.4599991	-26.28000069	2.01760745	4.321479321	9.41943264	1.0
[LeftArm]
14	105.923996	-5.24600029	-22.32099915	-51.04614258	-5.337249279	11.55019569	1.0
15	105.923996	-5.24600029	-22.32099915	-27.290205	3.831102371	2.617924452	1.0
16	105.923996	-5.24600029	-22.32099915	-9.85684967	15.94661713	-9.033877373	1.0
17	105.923996	-5.24600029	-22.32099915	-5.116790771	20.6120224	-20.25214767	1.0
[LeftForeArm]
14	278.414978	-0.0009999999311	0	-7.69901817e-06	-28.47634888	-0.0001983777183	1.0
15	278.414978	-0.0009999999311	0	-9.423242773e-06	-56.24290085	-0.0002032525954	1.0
16	278.414978	-0.0009999999311	0	-3.967986049e-05	-81.35905457	-0.000203675183	1.0
17	278.414978	-0.0009999999311	0	-0.0001678467233	-92.40155792	-4.57763017e-05	1.0
[LeftHand]
14	283.2879944	0	0	-54.07266998	13.2896719	28.3108139	1.0
15	283.2879944	0	0	-46.3570137	10.67447948	31.59197235	1.0
16	283.2879944	0	0	-39.17180634	7.255731583	32.74696732	1.0
17	283.2879944	0	0	-33.3600502	3.492429256	30.47237015	1.0
[LeftHandThumb1]
14	24.6609993	-15.75	26.8239994	12.02368736	-20.45349884	-33.28072357	1.0
15	24.6609993	-15.75	26.8239994	6.239822388	-14.55621815	-20.96925354	1.0
16	24.6609993	-15.75	26.8239994	2.290576696	-8.384583473	-8.287208557	1.0
17	24.6609993	-15.75	26.8239994	1.420991302	-3.769345999	-1.523069382	1.0
[LeftHandThumb2]
14	32.29800034	-18.64699936	18.64699936	66.66454315	51.192173	47.83891296	1.0
15	32.29800034	-18.64699936	18.64699936	69.27924347	51.55007172	50.08335114	1.0
16	32.29800034	-18.64699936	18.64699936	68.15914154	51.407547	49.12057114	1.0
17	32.29800034	-18.64699936	18.64699936	67.69908142	51.34442139	48.72562408	1.0
[LeftHandThumb3]
14	26.52600098	-15.31499958	15.31499958	54.31708908	49.14103699	47.34122086	1.0
15	26.52600098	-15.31499958	15.31499958	56.66397095	49.60058594	49.0063858	1.0
16	26.52600098	-15.31499958	15.31499958	53.52416992	48.97134781	46.78042984	1.0
17	26.52600098	-15.31499958	15.31499958	48.88489151	47.8024826	43.54014969	1.0
[LeftHandThumb4]
14	19.54599953	-11.28499985	11.28499985	0	0	0	1.0
15	19.54599953	-11.28499985	11.28499985	0	0	0	1.0
16	19.54599953	-11.28499985	11.28499985	0	0	0	1.0
17	19.54599953	-11.28499985	11.28499985	0	0	0	1.0
[LeftHandIndex1]
14	91.09299469	-5.170999527	22.60099792	-4.938362122	17.16781235	-62.41590881	1.0
15	91.09299469	-5.170999527	22.60099792	-5.243667603	18.02129745	-65.38657379	1.0
16	91.09299469	-5.170999527	22.60099792	-5.310368061	17.55306816	-65.89472198	1.0
17	91.09299469	-5.170999527	22.60099792	-5.410974979	17.47498131	-66.80310822	1.0
[LeftHandIndex2]
14	36.76399994	0	0	-2.543801785	4.815684319	-55.66889572	1.0
15	36.76399994	0	0	-2.896277189	5.037521839	-59.77142715	1.0
16	36.76399994	0	0	-2.996804953	5.094533443	-60.90984726	1.0
17	36.76399994	0	0	-2.961084604	5.07459259	-60.5067749	1.0
[LeftHandIndex3]
14	28.83100128	0	0	-1.926350832	4.331384182	-47.93712997	1.0
15	28.83100128	0	0	-1.467535615	3.869469404	-41.52745438	1.0
16	28.83100128	0	0	-0.9816126823	3.240016937	-33.70228195	1.0
17	28.83100128	0	0	-0.7282645106	2.824039459	-28.91551208	1.0
[LeftHandIndex4]
14	23.92700005	0	0	0	0	0	1.0
15	23.92700005	0	0	0	0	0	1.0
16	23.92700005	0	0	0	0	0	1.0
17	23.92700005	0	0	0	0	0	1.0
[LeftHandMiddle1]
14	95.33399963	0	0	-5.216774464	7.350645542	-62.91281891	1.0
15	95.33399963	0	0	-5.231370926	6.416357994	-62.86981583	1.0
16	95.33399963	0	0	-4.967988968	4.928962231	-60.21680069	1.0
17	95.33399963	0	0	-4.907846928	4.155069828	-59.52523041	1.0
[LeftHandMiddle2]
14	36.98199844	0	0	-3.151712418	5.177353382	-62.64021301	1.0
15	36.98199844	0	0	-3.599121332	5.384433746	-67.49832153	1.0
16	36.98199844	0	0	-3.776754379	5.454314232	-69.37902832	1.0
17	36.98199844	0	0	-3.784393311	5.457188129	-69.45946503	1.0
[LeftHandMiddle3]
14	29.50900078	0	0	-2.774145842	4.964624882	-58.37051773	1.0
15	29.50900078	0	0	-3.549374104	5.36366272	-66.96716309	1.0
16	29.50900078	0	0	-4.063354969	5.553245068	-72.36650085	1.0
17	29.50900078	0	0	-4.166388035	5.584805965	-73.42819214	1.0
[LeftHandMiddle4]
14	28.3390007	0	0	0	0	0	1.0
15	28.3390007	0	0	0	0	0	1.0
16	28.3390007	0	0	0	0	0	1.0
17	28.3390007	0	0	0	0	0	1.0
[LeftHandRing1]
14	91.04499817	-0.4390000105	-18.65100098	-5.181373596	-0.8726904988	-61.08599854	1.0
15	91.04499817	-0.4390000105	-18.65100098	-5.4407897	-2.486483812	-63.11727905	1.0
16	91.04499817	-0.4390000105	-18.65100098	-5.37131834	-3.222156763	-62.38668442	1.0
17	91.04499817	-0.4390000105	-18.65100098	-5.379567146	-3.511612177	-62.40761185	1.0
[LeftHandRing2]
14	31.54000092	0	0	-2.529608965	4.80601263	-55.49953461	1.0
15	31.54000092	0	0	-3.057293177	5.127603531	-61.58878326	1.0
16	31.54000092	0	0	-3.341317415	5.270768166	-64.72238159	1.0
17	31.54000092	0	0	-3.374047041	5.28601408	-65.07819366	1.0
[LeftHandRing3]
14	29.37700081	0	0	-1.980100155	4.379158974	-48.6449585	1.0
15	29.37700081	0	0	-2.433925152	4.739037991	-54.34963226	1.0
16	29.37700081	0	0	-2.670768261	4.899688244	-57.16829681	1.0
17	29.37700081	0	0	-2.694443464	4.914824486	-57.44490814	1.0
[LeftHandRing4]
14	26.47500038	0	0	0	0	0	1.0
15	26.47500038	0	0	0	0	0	1.0
16	26.47500038	0	0	0	0	0	1.0
17	26.47500038	0	0	0	0	0	1.0
[LeftHandPinky1]
14	80.77799988	-4.887000084	-38.06099701	-5.159494877	-11.45214939	-59.17385483	1.0
15	80.77799988	-4.887000084	-38.06099701	-5.841349602	-15.12783051	-64.21325684	1.0
16	80.77799988	-4.887000084	-38.06099701	-6.125672817	-15.72837734	-66.32577515	1.0
17	80.77799988	-4.887000084	-38.06099701	-6.307432652	-15.90787697	-67.70627594	1.0
[LeftHandPinky2]
14	36	0	0	-2.023616791	4.416973591	-49.21247864	1.0
15	36	0	0	-2.854659557	5.013122559	-59.29627609	1.0
16	36	0	0	-3.545762062	5.362127304	-66.92853546	1.0
17	36	0	0	-3.76473093	5.449809074	-69.25241852	1.0
[LeftHandPinky3]
14	21.14200211	0	0	-1.932926536	4.337300301	-48.0240097	1.0
15	21.14200211	0	0	-1.925005913	4.330168724	-47.91917801	1.0
16	21.14200211	0	0	-1.832523465	4.245078564	-46.68237305	1.0
17	21.14200211	0	0	-1.746214986	4.162223816	-45.50503922	1.0
[LeftHandPinky4]
14	19.75699997	0	0	0	0	0	1.0
15	19.75699997	0	0	0	0	0	1.0
16	19.75699997	0	0	0	0	0	1.0
17	19.75699997	0	0	0	0	0	1.0
[RightShoulder]
14	-45.70000076	109.4620056	-26.28000069	9.879500389	-4.197634697	-37.58443832	1.0
15	-45.70000076	109.4620056	-26.28000069	6.91004324	-5.691208363	-26.10796928	1.0
16	-45.70000076	109.4620056	-26.28000069	3.811196327	-5.991334438	-14.99633884	1.0
17	-45.70000076	109.4620056	-26.28000069	2.01760745	-4.321486473	-9.419434547	1.0
[RightArm]
14	-105.9280014	-5.248000145	-22.32099915	-51.04613113	5.337438107	-11.54997158	1.0
15	-105.9280014	-5.248000145	-22.32099915	-27.29021454	-3.83101964	-2.617671728	1.0
16	-105.9280014	-5.248000145	-22.32099915	-9.856893539	-15.94658566	9.034098625	1.0
17	-105.9280014	-5.248000145	-22.32099915	-5.11680603	-20.61201096	20.25234032	1.0
[RightForeArm]
14	-278.414978	0	0	1.964657486e-06	28.47619438	1.251234698e-05	1.0
15	-278.414978	0	0	-1.021711569e-06	56.24272156	-1.935925866e-06	1.0
16	-278.414978	0	0	8.23749815e-06	81.35887909	1.322310982e-05	1.0
17	-278.414978	0	0	7.629379252e-05	92.40132904	1.525867719e-05	1.0
[RightHand]
14	-283.2879944	0	0.0009999999311	-53.02074051	-12.7739048	-27.73736763	1.0
15	-283.2879944	0	0.0009999999311	-45.29078293	-10.23847294	-30.95859528	1.0
16	-283.2879944	0	0.0009999999311	-38.07413483	-6.901237011	-32.06925964	1.0
17	-283.2879944	0	0.0009999999311	-32.22012711	-3.208086729	-29.76612282	1.0
[RightHandPinky1]
14	-80.76699829	-4.885000229	-38.06000137	-4.466390133	12.53460312	58.32316208	1.0
15	-80.76699829	-4.885000229	-38.06000137	-5.055463314	16.2491436	63.35627365	1.0
16	-80.76699829	-4.885000229	-38.06000137	-5.297527313	16.86343956	65.47647858	1.0
17	-80.76699829	-4.885000229	-38.06000137	-5.450912952	17.05111504	66.86393738	1.0
[RightHandPinky2]
14	-36	0	0.0009999999311	-1.609590292	-3.51100421	49.26647568	1.0
15	-36	0	0.0009999999311	-2.270035744	-3.9848423	59.34416199	1.0
16	-36	0	0.0009999999311	-2.819025993	-4.262198448	66.96780396	1.0
17	-36	0	0.0009999999311	-2.992939472	-4.331897736	69.28846741	1.0
[RightHandPinky3]
14	-21.14200211	0	0	-1.538662791	-3.448719025	48.07836151	1.0
15	-21.14200211	0	0	-1.532376647	-3.443056345	47.97356796	1.0
16	-21.14200211	0	0	-1.458832145	-3.375464439	46.73697281	1.0
17	-21.14200211	0	0	-1.390175104	-3.309630394	45.55972672	1.0
[RightHandPinky4]
14	-19.75699997	0	0	0	0	0	1.0
15	-19.75699997	0	0	0	0	0	1.0
16	-19.75699997	0	0	0	0	0	1.0
17	-19.75699997	0	0	0	0	0	1.0
[RightHandRing1]
14	-91.03599548	-0.4390000105	-18.65100098	-4.440134048	1.972823381	60.32813644	1.0
15	-91.03599548	-0.4390000105	-18.65100098	-4.660847187	3.601953506	62.34867096	1.0
16	-91.03599548	-0.4390000105	-18.65100098	-4.605948925	4.332231998	61.61182404	1.0
17	-91.03599548	-0.4390000105	-18.65100098	-4.613982677	4.621857166	61.63061142	1.0
[RightHandRing2]
14	-31.54000092	0	0	-2.013062477	-3.821088076	55.55057526	1.0
15	-31.54000092	0	0	-2.432433605	-4.076554775	61.63450623	1.0
16	-31.54000092	0	0	-2.658102751	-4.190253735	64.76455688	1.0
17	-31.54000092	0	0	-2.684120893	-4.202383995	65.11994934	1.0
[RightHandRing3]
14	-29.37700081	0	0	-1.576188922	-3.482008696	48.69916153	1.0
15	-29.37700081	0	0	-1.937018514	-3.767921209	54.40138245	1.0
16	-29.37700081	0	0	-2.125287056	-3.89554143	57.2180748	1.0
17	-29.37700081	0	0	-2.144090891	-3.907567024	57.49447632	1.0
[RightHandRing4]
14	-26.47500038	0	0	0	0	0	1.0
15	-26.47500038	0	0	0	0	0	1.0
16	-26.47500038	0	0	0	0	0	1.0
17	-26.47500038	0	0	0	0	0	1.0
[RightHandMiddle1]
14	-95.32500458	0	0	-4.44246769	-6.236369133	62.21596527	1.0
15	-95.32500458	0	0	-4.457217693	-5.302427769	62.16617203	1.0
16	-95.32500458	0	0	-4.244192123	-3.835643291	59.50619888	1.0
17	-95.32500458	0	0	-4.19685936	-3.067481756	58.80913925	1.0
[RightHandMiddle2]
14	-36.98199844	0	0	-2.507469416	-4.116084099	62.68482971	1.0
15	-36.98199844	0	0	-2.862896681	-4.280538082	67.53696442	1.0
16	-36.98199844	0	0	-3.003998756	-4.336028576	69.41506195	1.0
17	-36.98199844	0	0	-3.010068893	-4.338318825	69.49536896	1.0
[RightHandMiddle3]
14	-29.50900078	0	0	-2.207444668	-3.949135303	58.41937256	1.0
15	-29.50900078	0	0	-2.823383808	-4.266062737	67.00658417	1.0
16	-29.50900078	0	0	-3.231630325	-4.416620255	72.39813995	1.0
17	-29.50900078	0	0	-3.313448429	-4.441671371	73.45814514	1.0
[RightHandMiddle4]
14	-28.3390007	0	0.0009999999311	0	0	0	1.0
15	-28.3390007	0	0.0009999999311	0	0	0	1.0
16	-28.3390007	0	0.0009999999311	0	0	0	1.0
17	-28.3390007	0	0.0009999999311	0	0	0	1.0
[RightHandIndex1]
14	-91.08300018	-5.167999744	22.60099792	-4.188568115	-16.05690765	61.79652023	1.0
15	-91.08300018	-5.167999744	22.60099792	-4.435054302	-16.88985252	64.75579071	1.0
16	-91.08300018	-5.167999744	22.60099792	-4.490320206	-16.4184227	65.25757599	1.0
17	-91.08300018	-5.167999744	22.60099792	-4.57200861	-16.33481979	66.15998077	1.0
[RightHandIndex2]
14	-36.76399994	0	0	-2.024368763	-3.828821182	55.71982956	1.0
15	-36.76399994	0	0	-2.304503679	-4.005023479	59.81896591	1.0
16	-36.76399994	0	0	-2.384388685	-4.050304413	60.95627975	1.0
17	-36.76399994	0	0	-2.356001377	-4.034460068	60.55364609	1.0
[RightHandIndex3]
14	-28.83100128	0	0	-1.533444405	-3.444053411	47.99148178	1.0
15	-28.83100128	0	0	-1.168509603	-3.076972008	41.58172226	1.0
16	-28.83100128	0	0	-0.7818061709	-2.576649666	33.75277328	1.0
17	-28.83100128	0	0	-0.5801142454	-2.245964289	28.96179581	1.0
[RightHandIndex4]
14	-23.92700005	0	0	0	0	0	1.0
15	-23.92700005	0	0	0	0	0	1.0
16	-23.92700005	0	0	0	0	0	1.0
17	-23.92700005	0	0	0	0	0	1.0
[RightHandThumb1]
14	-24.64799881	-15.72700024	26.82600021	11.77365685	22.74651337	34.00678253	1.0
15	-24.64799881	-15.72700024	26.82600021	5.629451752	16.80568695	21.52249527	1.0
16	-24.64799881	-15.72700024	26.82600021	1.410816789	10.4944334	8.780207634	1.0
17	-24.64799881	-15.72700024	26.82600021	0.4042460918	5.76527071	2.064585924	1.0
[RightHandThumb2]
14	-32.29800034	-18.64699936	18.64699936	69.19896698	-52.59135437	-50.47839737	1.0
15	-32.29800034	-18.64699936	18.64699936	71.91513824	-52.90657806	-52.81578064	1.0
16	-32.29800034	-18.64699936	18.64699936	70.75208282	-52.78263092	-51.81373215	1.0
17	-32.29800034	-18.64699936	18.64699936	70.27415466	-52.72703552	-51.40242004	1.0
[RightHandThumb3]
14	-26.52600098	-15.31399918	15.31399918	63.72863388	-51.15971756	-55.07192612	1.0
15	-26.52600098	-15.31399918	15.31399918	66.24517822	-51.41369629	-56.9000473	1.0
16	-26.52600098	-15.31399918	15.31399918	62.87374878	-51.05899429	-54.45135117	1.0
17	-26.52600098	-15.31399918	15.31399918	57.82338715	-50.28784943	-50.81328201	1.0
[RightHandThumb4]
14	-19.54599953	-11.28499985	11.28499985	0	0	0	1.0
15	-19.54599953	-11.28499985	11.28499985	0	0	0	1.0
16	-19.54599953	-11.28499985	11.28499985	0	0	0	1.0
17	-19.54599953	-11.28499985	11.28499985	0	0	0	1.0
[LeftUpLeg]
14	82.07800293	-67.51699829	-15.99599934	-40.6516304	-2.963837147	7.293946266	1.0
15	82.07800293	-67.51699829	-15.99599934	-43.58905411	-4.637162685	7.548928261	1.0
16	82.07800293	-67.51699829	-15.99599934	-46.13074112	-5.757427692	7.810966015	1.0
17	82.07800293	-67.51699829	-15.99599934	-47.86865616	-6.313446999	8.096705437	1.0
[LeftLeg]
14	0	-443.7049866	2.845999956	98.1257019	9.620648384	-4.855339527	1.0
15	0	-443.7049866	2.845999956	99.39385223	9.771092415	-4.41531229	1.0
16	0	-443.7049866	2.845999956	99.54164124	9.888895035	-4.355766773	1.0
17	0	-443.7049866	2.845999956	98.37333679	10.01164055	-4.715966702	1.0
[LeftFoot]
14	0	-444.2789917	-29.8219986	-81.87939453	1.530996799	6.31268692	1.0
15	0	-444.2789917	-29.8219986	-84.25946045	2.493145466	5.149113655	1.0
16	0	-444.2789917	-29.8219986	-85.81998444	3.4011724	4.253281116	1.0
17	0	-444.2789917	-29.8219986	-86.6277771	4.220978737	3.763522625	1.0
[LeftToeBase]
14	0	-87.28699493	107.1060028	-4.116656527e-08	6.396081744e-07	-1.733738713e-06	1.0
15	0	-87.28699493	107.1060028	-3.209497663e-05	1.70519229e-06	-2.566457169e-06	1.0
16	0	-87.28699493	107.1060028	-4.517483467e-05	-4.262520292e-07	3.369599881e-06	1.0
17	0	-87.28699493	107.1060028	-3.527845144	1.363716819e-06	-1.605673106e-06	1.0
[RightUpLeg]
14	-82.07800293	-67.51699829	-15.99599934	-112.4653091	-0.4655016959	-16.54619026	1.0
15	-82.07800293	-67.51699829	-15.99599934	-117.5959091	-2.045690298	-18.12228394	1.0
16	-82.07800293	-67.51699829	-15.99599934	-121.9363327	-3.647656202	-18.30209351	1.0
17	-82.07800293	-67.51699829	-15.99599934	-125.9093018	-4.845333576	-17.72953224	1.0
[RightLeg]
14	0	-443.7049866	2.861999989	81.5565567	-9.369055748	-3.218382597	1.0
15	0	-443.7049866	2.861999989	77.65800476	-9.719594002	-2.923146963	1.0
16	0	-443.7049866	2.861999989	76.0192337	-9.598245621	-1.571148515	1.0
17	0	-443.7049866	2.861999989	77.55405426	-9.236894608	-0.002907946939	1.0
[RightFoot]
14	0	-444.2770081	-29.83799934	7.016602516	-4.77752018	5.980894566	1.0
15	0	-444.2770081	-29.83799934	12.19881153	-6.555960655	6.68282938	1.0
16	0	-444.2770081	-29.83799934	14.22912025	-8.279670715	6.748168468	1.0
17	0	-444.2770081	-29.83799934	12.84587479	-9.603510857	6.747101307	1.0
[RightToeBase]
14	0	-87.28699493	107.1060028	-1.515573604e-05	-2.909377805e-08	-1.999551955e-07	1.0
15	0	-87.28699493	107.1060028	-1.515573604e-05	-2.909377805e-08	-1.999551955e-07	1.0
16	0	-87.28699493	107.1060028	-1.515573604e-05	-2.909377805e-08	-1.999551955e-07	1.0
17	0	-87.28699493	107.1060028	-1.515573604e-05	-2.909377805e-08	-1.999551955e-07	1.0
[EndOfFile]
